<svg xmlns="http://www.w3.org/2000/svg" width="270" height="266.675" viewBox="0 0 270 266.675">
  <g id="catMenu" transform="translate(-763 -427.739)">
    <path id="Path_4" data-name="Path 4" d="M772.969,428s-13.279,87.7,3.138,103.182,9.629-27.712,9.629-27.712-3.053-17.763-1.943-32.473,1.943-19.983,1.943-19.983l24.979,10.824s8.6,3.608,9.714,4.718S834.5,482.448,834.5,482.448l21.952-7.927s-29.921-26.559-33.252-28.78-24.424-10.547-24.424-10.547Z" fill="#ff0"/>
    <g id="Path_6" data-name="Path 6" transform="translate(763 447)" fill="none">
      <path d="M135,18.374c74.558,0,135,38.71,135,109.126S209.558,247.414,135,247.414,0,197.916,0,127.5,60.442,18.374,135,18.374Z" stroke="none"/>
      <path d="M 135 32.37397766113281 C 79.18194580078125 32.37397766113281 14 57.28712463378906 14 127.4999694824219 C 14 187.8807220458984 66.01870727539062 233.4137725830078 135 233.4137725830078 C 203.9812927246094 233.4137725830078 256 187.8807220458984 256 127.4999694824219 C 256 57.28712463378906 190.8180541992188 32.37397766113281 135 32.37397766113281 M 135 18.37397766113281 C 209.5584411621094 18.37397766113281 270 57.08372497558594 270 127.4999694824219 C 270 197.9162750244141 209.5584411621094 247.4137725830078 135 247.4137725830078 C 60.44154357910156 247.4137725830078 0 197.9162750244141 0 127.4999694824219 C 0 57.08372497558594 60.44154357910156 18.37397766113281 135 18.37397766113281 Z" stroke="none" fill="#ff0"/>
    </g>
    <path id="Path_5" data-name="Path 5" d="M10.775,102.912s-22.481-88.238-2.5-100.45S23.542,27.441,23.542,27.441,20.489,45.2,21.6,59.914,23.542,79.9,23.542,79.9L48.522,69.073s8.6-3.608,9.714-4.718S71.955,49.18,71.955,49.18l21.511,9.48S64.342,82.951,61.011,85.171,36.587,95.718,36.587,95.718Z" transform="translate(1031.204 532.266) rotate(-179)" fill="#ff0"/>
    <rect id="Rectangle_6" data-name="Rectangle 6" width="144" height="13" rx="6.5" transform="translate(826 532)" fill="#ff0"/>
    <rect id="Rectangle_6-2" data-name="Rectangle 6" width="144" height="13" rx="6.5" transform="translate(826 568)" fill="#ff0"/>
    <rect id="Rectangle_6-3" data-name="Rectangle 6" width="144" height="13" rx="6.5" transform="translate(826 604)" fill="#ff0"/>
  </g>
</svg>
